<?xml version="1.0" encoding="UTF-8" standalone="no"?><svg xmlns="http://www.w3.org/2000/svg" id="ss_icon_pixelperfect" width="16" height="16" viewBox="0 0 16 16" preserveAspectRatio="xMidYMid meet" rendering="crispEdges"><g><rect id="7-1" x="6" y="0" width="1" height="1" shape-rendering="crispEdges" style="fill:#00b9fd;opacity:253;"></rect><rect id="10-1" x="9" y="0" width="1" height="1" shape-rendering="crispEdges" style="fill:#00b9fd;opacity:255;"></rect><rect id="5-2" x="4" y="1" width="1" height="1" shape-rendering="crispEdges" style="fill:#00b9fd;opacity:255;"></rect><rect id="7-2" x="6" y="1" width="1" height="1" shape-rendering="crispEdges" style="fill:#00b9fd;opacity:255;"></rect><rect id="10-2" x="9" y="1" width="1" height="1" shape-rendering="crispEdges" style="fill:#009bfd;opacity:255;"></rect><rect id="12-2" x="11" y="1" width="1" height="1" shape-rendering="crispEdges" style="fill:#00b9fd;opacity:255;"></rect><rect id="4-3" x="3" y="2" width="1" height="1" shape-rendering="crispEdges" style="fill:#00b9fd;opacity:255;"></rect><rect id="5-3" x="4" y="2" width="1" height="1" shape-rendering="crispEdges" style="fill:#009bfd;opacity:255;"></rect><rect id="7-3" x="6" y="2" width="1" height="1" shape-rendering="crispEdges" style="fill:#009bfd;opacity:255;"></rect><rect id="10-3" x="9" y="2" width="1" height="1" shape-rendering="crispEdges" style="fill:#0082fd;opacity:255;"></rect><rect id="12-3" x="11" y="2" width="1" height="1" shape-rendering="crispEdges" style="fill:#0082fd;opacity:255;"></rect><rect id="13-3" x="12" y="2" width="1" height="1" shape-rendering="crispEdges" style="fill:#0082fd;opacity:255;"></rect><rect id="3-4" x="2" y="3" width="1" height="1" shape-rendering="crispEdges" style="fill:#00b9fd;opacity:255;"></rect><rect id="4-4" x="3" y="3" width="1" height="1" shape-rendering="crispEdges" style="fill:#009bfd;opacity:255;"></rect><rect id="5-4" x="4" y="3" width="1" height="1" shape-rendering="crispEdges" style="fill:#0082fd;opacity:255;"></rect><rect id="7-4" x="6" y="3" width="1" height="1" shape-rendering="crispEdges" style="fill:#0082fd;opacity:255;"></rect><rect id="10-4" x="9" y="3" width="1" height="1" shape-rendering="crispEdges" style="fill:#0082fd;opacity:255;"></rect><rect id="12-4" x="11" y="3" width="1" height="1" shape-rendering="crispEdges" style="fill:#0082fd;opacity:255;"></rect><rect id="13-4" x="12" y="3" width="1" height="1" shape-rendering="crispEdges" style="fill:#0082fd;opacity:255;"></rect><rect id="14-4" x="13" y="3" width="1" height="1" shape-rendering="crispEdges" style="fill:#0082fd;opacity:255;"></rect><rect id="2-5" x="1" y="4" width="1" height="1" shape-rendering="crispEdges" style="fill:#00b9fd;opacity:255;"></rect><rect id="3-5" x="2" y="4" width="1" height="1" shape-rendering="crispEdges" style="fill:#009bfd;opacity:255;"></rect><rect id="4-5" x="3" y="4" width="1" height="1" shape-rendering="crispEdges" style="fill:#0082fd;opacity:255;"></rect><rect id="13-5" x="12" y="4" width="1" height="1" shape-rendering="crispEdges" style="fill:#0082fd;opacity:255;"></rect><rect id="14-5" x="13" y="4" width="1" height="1" shape-rendering="crispEdges" style="fill:#0053fd;opacity:255;"></rect><rect id="15-5" x="14" y="4" width="1" height="1" shape-rendering="crispEdges" style="fill:#0053fd;opacity:255;"></rect><rect id="8-6" x="7" y="5" width="1" height="1" shape-rendering="crispEdges" style="fill:#00b9fd;opacity:255;"></rect><rect id="9-6" x="8" y="5" width="1" height="1" shape-rendering="crispEdges" style="fill:#009bfd;opacity:255;"></rect><rect id="1-7" x="0" y="6" width="1" height="1" shape-rendering="crispEdges" style="fill:#00b8fd;opacity:255;"></rect><rect id="2-7" x="1" y="6" width="1" height="1" shape-rendering="crispEdges" style="fill:#009bfd;opacity:255;"></rect><rect id="3-7" x="2" y="6" width="1" height="1" shape-rendering="crispEdges" style="fill:#009bfd;opacity:255;"></rect><rect id="4-7" x="3" y="6" width="1" height="1" shape-rendering="crispEdges" style="fill:#0082fd;opacity:255;"></rect><rect id="7-7" x="6" y="6" width="1" height="1" shape-rendering="crispEdges" style="fill:#00b9fd;opacity:255;"></rect><rect id="8-7" x="7" y="6" width="1" height="1" shape-rendering="crispEdges" style="fill:#009bfd;opacity:255;"></rect><rect id="9-7" x="8" y="6" width="1" height="1" shape-rendering="crispEdges" style="fill:#009bfd;opacity:255;"></rect><rect id="10-7" x="9" y="6" width="1" height="1" shape-rendering="crispEdges" style="fill:#009bfd;opacity:255;"></rect><rect id="13-7" x="12" y="6" width="1" height="1" shape-rendering="crispEdges" style="fill:#00b9fd;opacity:253;"></rect><rect id="14-7" x="13" y="6" width="1" height="1" shape-rendering="crispEdges" style="fill:#0082fd;opacity:255;"></rect><rect id="15-7" x="14" y="6" width="1" height="1" shape-rendering="crispEdges" style="fill:#0082fd;opacity:255;"></rect><rect id="16-7" x="15" y="6" width="1" height="1" shape-rendering="crispEdges" style="fill:#0053fd;opacity:255;"></rect><rect id="6-8" x="5" y="7" width="1" height="1" shape-rendering="crispEdges" style="fill:#00b9fd;opacity:255;"></rect><rect id="7-8" x="6" y="7" width="1" height="1" shape-rendering="crispEdges" style="fill:#009bfd;opacity:255;"></rect><rect id="8-8" x="7" y="7" width="1" height="1" shape-rendering="crispEdges" style="fill:#009bfd;opacity:255;"></rect><rect id="9-8" x="8" y="7" width="1" height="1" shape-rendering="crispEdges" style="fill:#0082fd;opacity:255;"></rect><rect id="10-8" x="9" y="7" width="1" height="1" shape-rendering="crispEdges" style="fill:#0082fd;opacity:255;"></rect><rect id="11-8" x="10" y="7" width="1" height="1" shape-rendering="crispEdges" style="fill:#0082fd;opacity:255;"></rect><rect id="6-9" x="5" y="8" width="1" height="1" shape-rendering="crispEdges" style="fill:#009bfd;opacity:255;"></rect><rect id="7-9" x="6" y="8" width="1" height="1" shape-rendering="crispEdges" style="fill:#009bfd;opacity:255;"></rect><rect id="8-9" x="7" y="8" width="1" height="1" shape-rendering="crispEdges" style="fill:#0082fd;opacity:255;"></rect><rect id="9-9" x="8" y="8" width="1" height="1" shape-rendering="crispEdges" style="fill:#0082fd;opacity:255;"></rect><rect id="10-9" x="9" y="8" width="1" height="1" shape-rendering="crispEdges" style="fill:#0053fd;opacity:255;"></rect><rect id="11-9" x="10" y="8" width="1" height="1" shape-rendering="crispEdges" style="fill:#0053fd;opacity:255;"></rect><rect id="1-10" x="0" y="9" width="1" height="1" shape-rendering="crispEdges" style="fill:#009bfd;opacity:255;"></rect><rect id="2-10" x="1" y="9" width="1" height="1" shape-rendering="crispEdges" style="fill:#009bfd;opacity:255;"></rect><rect id="3-10" x="2" y="9" width="1" height="1" shape-rendering="crispEdges" style="fill:#0082fd;opacity:255;"></rect><rect id="4-10" x="3" y="9" width="1" height="1" shape-rendering="crispEdges" style="fill:#0053fd;opacity:255;"></rect><rect id="7-10" x="6" y="9" width="1" height="1" shape-rendering="crispEdges" style="fill:#0082fd;opacity:255;"></rect><rect id="8-10" x="7" y="9" width="1" height="1" shape-rendering="crispEdges" style="fill:#0082fd;opacity:255;"></rect><rect id="9-10" x="8" y="9" width="1" height="1" shape-rendering="crispEdges" style="fill:#0053fd;opacity:255;"></rect><rect id="10-10" x="9" y="9" width="1" height="1" shape-rendering="crispEdges" style="fill:#0053fd;opacity:255;"></rect><rect id="13-10" x="12" y="9" width="1" height="1" shape-rendering="crispEdges" style="fill:#0082fd;opacity:255;"></rect><rect id="14-10" x="13" y="9" width="1" height="1" shape-rendering="crispEdges" style="fill:#0082fd;opacity:255;"></rect><rect id="15-10" x="14" y="9" width="1" height="1" shape-rendering="crispEdges" style="fill:#0053fd;opacity:255;"></rect><rect id="16-10" x="15" y="9" width="1" height="1" shape-rendering="crispEdges" style="fill:#0053fd;opacity:255;"></rect><rect id="8-11" x="7" y="10" width="1" height="1" shape-rendering="crispEdges" style="fill:#0053fd;opacity:255;"></rect><rect id="9-11" x="8" y="10" width="1" height="1" shape-rendering="crispEdges" style="fill:#0053fd;opacity:255;"></rect><rect id="2-12" x="1" y="11" width="1" height="1" shape-rendering="crispEdges" style="fill:#009bfd;opacity:255;"></rect><rect id="3-12" x="2" y="11" width="1" height="1" shape-rendering="crispEdges" style="fill:#009bfd;opacity:255;"></rect><rect id="4-12" x="3" y="11" width="1" height="1" shape-rendering="crispEdges" style="fill:#009bfd;opacity:255;"></rect><rect id="13-12" x="12" y="11" width="1" height="1" shape-rendering="crispEdges" style="fill:#00b9fd;opacity:253;"></rect><rect id="14-12" x="13" y="11" width="1" height="1" shape-rendering="crispEdges" style="fill:#0082fd;opacity:255;"></rect><rect id="15-12" x="14" y="11" width="1" height="1" shape-rendering="crispEdges" style="fill:#0053fd;opacity:255;"></rect><rect id="3-13" x="2" y="12" width="1" height="1" shape-rendering="crispEdges" style="fill:#0082fd;opacity:255;"></rect><rect id="4-13" x="3" y="12" width="1" height="1" shape-rendering="crispEdges" style="fill:#0082fd;opacity:255;"></rect><rect id="5-13" x="4" y="12" width="1" height="1" shape-rendering="crispEdges" style="fill:#0082fd;opacity:255;"></rect><rect id="7-13" x="6" y="12" width="1" height="1" shape-rendering="crispEdges" style="fill:#0082fd;opacity:255;"></rect><rect id="10-13" x="9" y="12" width="1" height="1" shape-rendering="crispEdges" style="fill:#0082fd;opacity:255;"></rect><rect id="12-13" x="11" y="12" width="1" height="1" shape-rendering="crispEdges" style="fill:#00b9fd;opacity:253;"></rect><rect id="13-13" x="12" y="12" width="1" height="1" shape-rendering="crispEdges" style="fill:#0082fd;opacity:255;"></rect><rect id="14-13" x="13" y="12" width="1" height="1" shape-rendering="crispEdges" style="fill:#0053fd;opacity:255;"></rect><rect id="4-14" x="3" y="13" width="1" height="1" shape-rendering="crispEdges" style="fill:#0082fd;opacity:255;"></rect><rect id="5-14" x="4" y="13" width="1" height="1" shape-rendering="crispEdges" style="fill:#0053fd;opacity:255;"></rect><rect id="7-14" x="6" y="13" width="1" height="1" shape-rendering="crispEdges" style="fill:#0082fd;opacity:255;"></rect><rect id="10-14" x="9" y="13" width="1" height="1" shape-rendering="crispEdges" style="fill:#0053fd;opacity:255;"></rect><rect id="12-14" x="11" y="13" width="1" height="1" shape-rendering="crispEdges" style="fill:#0082fd;opacity:255;"></rect><rect id="13-14" x="12" y="13" width="1" height="1" shape-rendering="crispEdges" style="fill:#0053fd;opacity:255;"></rect><rect id="5-15" x="4" y="14" width="1" height="1" shape-rendering="crispEdges" style="fill:#0053fd;opacity:255;"></rect><rect id="7-15" x="6" y="14" width="1" height="1" shape-rendering="crispEdges" style="fill:#0053fd;opacity:255;"></rect><rect id="10-15" x="9" y="14" width="1" height="1" shape-rendering="crispEdges" style="fill:#0053fd;opacity:255;"></rect><rect id="12-15" x="11" y="14" width="1" height="1" shape-rendering="crispEdges" style="fill:#0053fd;opacity:255;"></rect><rect id="7-16" x="6" y="15" width="1" height="1" shape-rendering="crispEdges" style="fill:#0053fd;opacity:255;"></rect><rect id="10-16" x="9" y="15" width="1" height="1" shape-rendering="crispEdges" style="fill:#0053fd;opacity:255;"></rect></g></svg>